<?xml version="1.0" standalone="no"?>
<!DOCTYPE svg PUBLIC "-//W3C//DTD SVG 20010904//EN"
 "http://www.w3.org/TR/2001/REC-SVG-20010904/DTD/svg10.dtd">
<svg version="1.0" xmlns="http://www.w3.org/2000/svg"
 width="345.000000pt" height="345.000000pt" viewBox="0 0 345.000000 345.000000"
 preserveAspectRatio="xMidYMid meet">
<metadata>
Created by potrace 1.14, written by Peter Selinger 2001-2017
</metadata>
<g transform="translate(0.000000,345.000000) scale(0.100000,-0.100000)"
fill="#000000" stroke="none">
<path d="M1589 3206 c-2 -2 -31 -6 -64 -9 -33 -3 -67 -8 -75 -11 -8 -3 -31 -7
-50 -10 -86 -13 -247 -69 -360 -126 -73 -36 -214 -122 -230 -140 -3 -3 -27
-23 -55 -45 -105 -83 -220 -210 -292 -324 -24 -36 -46 -71 -50 -76 -31 -40
-131 -278 -149 -354 -63 -272 -69 -511 -15 -741 89 -387 334 -725 680 -940
127 -79 225 -121 381 -165 150 -42 223 -50 420 -49 212 2 338 26 530 101 387
152 697 464 849 858 36 91 76 245 88 331 17 134 8 386 -19 504 -5 25 -12 55
-14 67 -9 47 -24 73 -51 87 -24 12 -33 12 -60 1 -46 -19 -49 -48 -22 -178 18
-89 23 -144 23 -267 1 -85 -3 -177 -8 -205 -4 -27 -10 -59 -11 -70 -2 -11 -11
-47 -20 -80 -104 -387 -381 -716 -740 -880 -62 -28 -162 -66 -190 -71 -5 -1
-30 -7 -55 -14 -148 -41 -391 -48 -562 -16 -190 35 -388 118 -537 224 -96 69
-226 192 -285 272 -22 30 -43 57 -46 60 -11 11 -79 128 -105 180 -51 106 -106
277 -120 380 -11 76 -14 312 -4 378 25 178 62 298 140 449 105 207 278 396
480 525 113 72 255 132 394 167 121 30 176 35 340 36 168 0 304 -23 450 -76
99 -36 255 -121 340 -186 l63 -48 -5 -56 c-7 -69 20 -124 77 -164 82 -57 204
-28 255 59 76 129 -33 294 -178 271 -34 -6 -45 -1 -125 60 -153 116 -434 239
-617 270 -16 2 -41 7 -55 11 -28 6 -335 15 -341 10z"/>
<path d="M1530 2472 c-5 -2 -10 -8 -10 -13 0 -9 -189 -509 -209 -554 -15 -33
-294 -759 -299 -777 -4 -16 10 -17 159 -15 l163 2 41 107 c22 58 43 109 47
113 3 4 115 7 247 7 133 0 241 3 241 7 0 11 -69 211 -80 231 -10 19 -22 20
-171 20 -125 0 -160 3 -156 13 25 63 54 142 187 510 21 60 26 64 34 32 4 -15
42 -126 86 -248 43 -122 108 -305 143 -407 108 -305 118 -334 128 -362 l11
-26 161 1 c102 1 161 6 160 12 -1 6 -48 127 -103 270 -56 143 -105 271 -110
285 -5 14 -76 198 -158 410 l-149 385 -176 0 c-97 0 -181 -1 -187 -3z"/>
</g>
</svg>
